<svg xmlns="http://www.w3.org/2000/svg" width="1080" height="1920" fill="none" viewBox="0 0 1080 1920"><g clip-path="url(#clip0_4_103)"><rect width="1080" height="1920" fill="#FDFDF6" rx="35"/><path fill="#0A2A5C" d="M923.726 74.2912C926.62 75.4205 938.387 77.3441 944.428 78.0061L940.689 73.7831C937.657 70.0323 933.638 55.4499 931.981 48.3948C929.34 32.5787 933.238 18.0118 946.877 15.0744C960.516 12.137 966.066 28.5885 969.87 34.9771C973.673 41.3657 975.405 62.9891 975.578 68.764L975.891 79.231L998.268 78.5606C997.524 77.8604 995.539 74.3074 993.547 65.6969C991.058 54.9339 989.994 31.4842 994.231 16.1845C998.469 0.884887 1011.1 0.506465 1019.6 6.75454C1028.09 13.0026 1027.48 28.916 1027.67 35.0518L1028.37 58.5123C1031.17 67.4599 1041.09 61.0213 1046.14 60.8699C1051.19 60.7186 1062.07 49.9164 1067.08 48.3213C1071.09 47.0452 1074.16 51.481 1075.19 53.8583C1076.76 57.8575 1072.67 60.9299 1070.42 63.394C1068.49 66.342 1067.36 76.6229 1065.71 81.5979C1066.67 89.6488 1064.29 99.9439 1063.67 103.334C1060.41 121.133 1053.05 122.678 1047.96 121.506C1038.58 117.163 1038.03 103.741 1038.93 97.5726C1038.38 91.0866 1043.53 82.2622 1041.73 82.3163C1039.92 82.3703 1033.65 90.1444 1031.61 94.1795C1029.97 97.4076 1023.33 123.448 1020.22 136.065C1016.75 155.243 1004.32 160.143 998.546 160.196C976.891 160.845 982.981 135.013 984.909 127.008C986.451 120.603 993.417 105.559 996.708 98.8376C990.942 99.2993 976.126 127.271 969.44 141.199C959.293 159.421 943.954 162.674 937.553 162.023C933.503 161.542 925.377 157.836 925.266 146.857C924.005 133.721 945.588 111.567 947.458 106.816C949.069 102.721 946.686 105.153 945.293 106.881C939.148 114.001 919.406 118.975 910.303 120.573C898.517 122.66 882.848 121.527 876.587 116.525C863.52 104.779 864.659 93.1719 867.41 87.5385C874.445 70.1198 896.114 68.9771 898.99 68.5297C901.867 68.0823 920.833 73.1621 923.726 74.2912Z"/><ellipse cx="903.213" cy="95.629" fill="#A5D7A2" rx="1.805" ry="2.166" transform="rotate(-91.716 903.213 95.6295)"/><ellipse cx="887.695" cy="96.094" fill="#A5D7A2" rx="1.805" ry="3.25" transform="rotate(-91.716 887.695 96.0944)"/><ellipse fill="#A5D7A2" rx="2.167" ry="3.159" transform="matrix(0.30305 -0.952975 0.952962 0.303091 882.155 83.4137)"/><ellipse fill="#A5D7A2" rx="2.167" ry="3.159" transform="matrix(0.30305 -0.952975 0.952962 0.303091 897.013 78.6335)"/><ellipse fill="#A5D7A2" rx="2.167" ry="3.159" transform="matrix(0.30305 -0.952975 0.952962 0.303091 912.301 82.5106)"/><ellipse fill="#A5D7A2" rx="2.167" ry="3.159" transform="matrix(0.30305 -0.952975 0.952962 0.303091 926.058 83.5435)"/><ellipse fill="#A5D7A2" rx="2.167" ry="3.159" transform="matrix(-0.0619243 -0.998081 0.998081 -0.0619289 909.788 110.866)"/><ellipse fill="#A5D7A2" rx="2.167" ry="3.159" transform="matrix(-0.0619244 -0.998081 0.998081 -0.0619288 896.139 113.443)"/><ellipse fill="#A5D7A2" rx="2.167" ry="3.159" transform="matrix(0.176898 -0.984229 0.984224 0.176925 877.856 106.043)"/><ellipse fill="#A5D7A2" rx="2.167" ry="3.159" transform="matrix(0.410941 -0.911662 0.91164 0.410991 873.453 93.3867)"/><ellipse fill="#A5D7A2" rx="2.167" ry="3.159" transform="matrix(0.410941 -0.911662 0.911639 0.410991 917.869 96.5536)"/><ellipse cx="936.724" cy="92.819" fill="#A5D7A2" rx="2.167" ry="3.25" transform="rotate(-91.716 936.724 92.8193)"/><ellipse fill="#A5D7A2" rx="2.167" ry="3.25" transform="matrix(-0.464945 -0.88534 0.885314 -0.464994 929.844 107.715)"/><ellipse fill="#A5D7A2" rx="2.166" ry="2.889" transform="matrix(-0.652382 -0.75789 0.757846 -0.652433 935.033 145)"/><ellipse fill="#A5D7A2" rx="2.251" ry="2.889" transform="matrix(-0.652381 -0.757891 0.757846 -0.652434 941.844 153.532)"/><ellipse fill="#A5D7A2" rx="2.251" ry="3.265" transform="matrix(-0.367519 -0.930016 0.929999 -0.367561 950.592 144.34)"/><ellipse fill="#A5D7A2" rx="2.251" ry="3.265" transform="matrix(-0.720296 -0.693667 0.693617 -0.720344 944.294 130.604)"/><ellipse fill="#A5D7A2" rx="2.251" ry="3.265" transform="matrix(-0.443559 -0.896245 0.896222 -0.443606 960.273 133.501)"/><ellipse fill="#A5D7A2" rx="2.251" ry="3.265" transform="matrix(-0.445 -0.895531 0.895507 -0.445048 951.836 117.133)"/><ellipse fill="#A5D7A2" rx="2.251" ry="3.265" transform="matrix(-0.299322 -0.954152 0.954141 -0.299357 966.107 116.342)"/><ellipse fill="#A5D7A2" rx="2.581" ry="4.007" transform="matrix(-0.210114 -0.977677 0.977672 -0.210138 953.244 99.1753)"/><ellipse fill="#A5D7A2" rx="2.043" ry="3.116" transform="matrix(0.245199 -0.969473 0.969464 0.245235 953.296 88.0573)"/><ellipse fill="#A5D7A2" rx="2.043" ry="3.116" transform="matrix(0.67712 -0.735873 0.735826 0.677171 945.691 65.0669)"/><ellipse fill="#A5D7A2" rx="2.043" ry="3.116" transform="matrix(0.67712 -0.735873 0.735826 0.677171 945.042 43.4111)"/><ellipse fill="#A5D7A2" rx="2.043" ry="3.116" transform="matrix(0.677119 -0.735874 0.735825 0.677172 938.879 30.5905)"/><ellipse fill="#A5D7A2" rx="2.043" ry="3.116" transform="matrix(0.677119 -0.735873 0.735825 0.677172 951.063 27.3355)"/><ellipse fill="#A5D7A2" rx="2.043" ry="3.116" transform="matrix(0.67712 -0.735873 0.735826 0.677171 960.114 40.0695)"/><ellipse fill="#A5D7A2" rx="2.043" ry="3.116" transform="matrix(0.677119 -0.735874 0.735825 0.677172 954.75 53.9578)"/><ellipse fill="#A5D7A2" rx="2.043" ry="3.116" transform="matrix(0.185391 -0.982665 0.982659 0.185421 963.721 69.8368)"/><ellipse fill="#A5D7A2" rx="2.043" ry="3.116" transform="matrix(0.185392 -0.982665 0.982659 0.185421 968.571 87.0317)"/><ellipse fill="#A5D7A2" rx="2.043" ry="3.116" transform="matrix(-0.398955 -0.916971 0.916952 -0.398998 970.382 99.2601)"/><ellipse fill="#A5D7A2" rx="2.043" ry="3.116" transform="matrix(0.185392 -0.982665 0.982659 0.18542 983.267 95.2615)"/><ellipse fill="#A5D7A2" rx="2.205" ry="2.922" transform="matrix(-0.641956 -0.766741 0.7488 -0.662796 988.434 142.915)"/><ellipse fill="#A5D7A2" rx="2.291" ry="2.922" transform="matrix(-0.641956 -0.766741 0.7488 -0.662796 994.532 151.719)"/><ellipse fill="#A5D7A2" rx="2.282" ry="3.316" transform="matrix(-0.743083 -0.669199 0.648104 -0.761552 1006.86 147.242)"/><ellipse fill="#A5D7A2" rx="2.273" ry="3.328" transform="matrix(-0.826825 -0.562459 0.540372 -0.841426 1002.78 135.454)"/><ellipse fill="#A5D7A2" rx="2.281" ry="3.316" transform="matrix(-0.745314 -0.666714 0.645569 -0.763702 1015.7 127.675)"/><ellipse fill="#A5D7A2" rx="2.273" ry="3.329" transform="matrix(-0.829504 -0.5585 0.536421 -0.84395 994.07 128.11)"/><ellipse fill="#A5D7A2" rx="2.274" ry="3.327" transform="matrix(-0.820191 -0.57209 0.549999 -0.835165 1010.07 112.938)"/><ellipse fill="#A5D7A2" rx="2.653" ry="4.012" transform="matrix(-0.2053 -0.978699 0.976598 -0.215075 1011.62 94.2886)"/><ellipse fill="#A5D7A2" rx="2.553" ry="3.049" transform="matrix(-0.138431 -0.990372 0.989488 -0.144614 1011.9 81.6858)"/><ellipse fill="#A5D7A2" rx="2.465" ry="2.325" transform="matrix(0.23811 -0.971238 0.967602 0.252482 1009.37 69.7054)"/><ellipse fill="#A5D7A2" rx="2.074" ry="3.161" transform="matrix(0.66674 -0.74529 0.726257 0.687423 999.027 60.6959)"/><ellipse fill="#A5D7A2" rx="2.049" ry="3.198" transform="matrix(0.943845 -0.330388 0.315418 0.948953 996.287 41.588)"/><ellipse fill="#A5D7A2" rx="2.074" ry="3.161" transform="matrix(0.666741 -0.74529 0.726257 0.687423 997.236 25.0724)"/><ellipse fill="#A5D7A2" rx="2.074" ry="3.161" transform="matrix(0.66674 -0.74529 0.726257 0.687424 1005.79 21.2348)"/><ellipse fill="#A5D7A2" rx="2.046" ry="3.203" transform="matrix(0.976861 -0.213874 0.204158 0.978938 1018.11 34.4574)"/><ellipse fill="#A5D7A2" rx="2.056" ry="3.187" transform="matrix(0.864701 -0.502288 0.482112 0.876109 1016.79 14.4287)"/><ellipse fill="#A5D7A2" rx="2.056" ry="3.187" transform="matrix(0.8647 -0.502289 0.482112 0.87611 1005.08 10.7781)"/><ellipse fill="#A5D7A2" rx="2.046" ry="3.203" transform="matrix(0.976861 -0.213874 0.204158 0.978938 1017.86 50.0739)"/><ellipse fill="#A5D7A2" rx="2.052" ry="3.193" transform="matrix(0.907785 -0.419436 0.4013 0.915947 1006.98 36.8079)"/><ellipse fill="#A5D7A2" rx="2.074" ry="3.161" transform="matrix(0.666743 -0.745288 0.726259 0.687421 1008.28 56.0941)"/><ellipse fill="#A5D7A2" rx="2.07" ry="3.166" transform="matrix(0.70966 -0.704544 0.684412 0.729096 1020.68 65.6451)"/><ellipse fill="#A5D7A2" rx="2.083" ry="3.146" transform="matrix(-0.580259 -0.814432 0.798924 -0.601432 1026.81 77.3536)"/><ellipse fill="#A5D7A2" rx="2.072" ry="3.163" transform="matrix(-0.726952 -0.686688 0.66599 -0.74596 1020.6 105.383)"/><ellipse fill="#A5D7A2" rx="2.779" ry="3.163" transform="matrix(-0.726952 -0.686689 0.66599 -0.745961 1001.05 112.28)"/><ellipse fill="#A5D7A2" rx="2.212" ry="3.163" transform="matrix(-0.726953 -0.686687 0.665991 -0.745959 999.242 86.7216)"/><ellipse fill="#A5D7A2" rx="2.084" ry="3.145" transform="matrix(-0.570976 -0.820967 0.80584 -0.592134 1025.27 89.9887)"/><ellipse fill="#A5D7A2" rx="2.528" ry="3.25" transform="matrix(-0.446438 -0.894815 0.894791 -0.446485 1040.93 73.0331)"/><ellipse fill="#A5D7A2" rx="2.528" ry="3.25" transform="matrix(-0.210999 -0.977486 0.977481 -0.211024 1053 66.1687)"/><ellipse fill="#A5D7A2" rx="2.528" ry="3.25" transform="matrix(-0.68348 -0.729969 0.729921 -0.683532 1048.6 84.6982)"/><ellipse fill="#A5D7A2" rx="2.527" ry="3.25" transform="matrix(-0.921948 -0.387313 0.387263 -0.921969 1060.87 75.7002)"/><ellipse fill="#A5D7A2" rx="2.658" ry="2.52" transform="matrix(0.0664344 -0.997791 0.99779 0.0664466 1056.55 98.6222)"/><ellipse fill="#A5D7A2" rx="3.495" ry="2.685" transform="matrix(0.597939 -0.801542 0.8015 0.597995 1046.26 104.66)"/><ellipse fill="#A5D7A2" rx="3.522" ry="2.706" transform="matrix(0.59794 -0.801541 0.8015 0.597994 1053.26 113.063)"/><path fill="#F3A361" d="M1052.9 1943.84C1048.75 1941.77 1039.07 1937.97 1033.5 1939.33C1026.55 1941.02 993.474 1939.24 986.842 1933.55C981.97 1929.99 973.651 1920.05 979.348 1908.85C980.634 1901.94 989.457 1888.86 1014.46 1891.89C1013.74 1890.01 1011.32 1886.07 1007.4 1885.31C1002.49 1884.34 989.554 1881.71 986.185 1882.78C982.816 1883.86 940.987 1884.63 933.53 1873.8C928.001 1869.25 918.41 1857.45 924.281 1846.61C926.022 1839.11 936.243 1825.17 963.199 1829.47C971.082 1830.85 987.864 1834.55 991.927 1838.36C993.273 1838.08 995.082 1836.61 991.553 1832.99C987.141 1828.45 956.688 1814.85 949.095 1814.08C941.502 1813.3 899.313 1807.59 892.494 1799.22C888.14 1795.96 879.642 1787.11 880.483 1777.82C881.534 1766.2 886.374 1755.53 896.714 1751.65C905.267 1747.52 925.794 1741.04 939.473 1748.2C939.333 1747.53 938.04 1745.01 933.989 1740.3C928.925 1734.42 904.843 1696.08 922.738 1679.1C929.339 1670.54 948.087 1656.63 970.277 1669.45C979.005 1674.49 997.398 1688.11 1001.14 1702.29C1001.14 1702.67 1001.53 1703.1 1003.16 1701.87C1005.19 1700.34 1021.9 1688.93 1034.35 1694.02C1038.22 1694.74 1047 1697.9 1051.2 1704.76C1056.45 1713.33 1055.15 1726.73 1050.1 1736.95C1045.04 1747.16 1035.42 1764.03 1034.49 1766.7C1033.56 1769.37 1019.98 1797.59 1020.04 1810.34C1019.62 1813.69 1019.35 1821.11 1021.64 1824C1022.56 1822.07 1024.54 1817.6 1025.11 1815.1C1025.83 1811.98 1034.67 1786.61 1046.84 1779.61C1051.88 1775.88 1063.97 1769.78 1071.94 1775.26C1076.98 1777.26 1087.08 1783.82 1087.12 1794.02C1087.72 1799.1 1086.74 1812.31 1077.99 1824.54C1073.22 1831.2 1072.56 1832.33 1073.54 1831.22C1075.19 1829.16 1076.71 1827.25 1077.97 1825.65C1076.31 1827.8 1074.36 1830.3 1073.54 1831.22C1066.5 1840.05 1057.16 1851.65 1055.69 1853.08C1053.42 1855.29 1049.25 1866.19 1050.93 1874.26C1053.44 1870.64 1058.81 1863.23 1060.25 1862.54C1062.06 1861.67 1078.32 1849.36 1086.49 1857.08C1093.3 1860.82 1105.35 1871.29 1099.11 1883.19C1097.02 1888.82 1090.44 1902.71 1080.82 1913.13C1077.41 1916.81 1070.42 1924.93 1069.66 1927.96C1068.71 1931.75 1069.6 1932.43 1068 1934.87C1066.4 1937.31 1060.5 1943.49 1052.9 1943.84Z"/><path fill="#000" d="M190.125 997V928.469H201.375V997H190.125ZM249.047 997L229.312 939.766H228.891C228.984 941.047 229.094 942.797 229.219 945.016C229.344 947.234 229.453 949.609 229.547 952.141C229.641 954.672 229.688 957.094 229.688 959.406V997H219.469V928.469H235.266L254.25 983.172H254.531L274.172 928.469H289.922V997H279.188V958.844C279.188 956.75 279.219 954.484 279.281 952.047C279.375 949.609 279.469 947.297 279.562 945.109C279.688 942.922 279.781 941.172 279.844 939.859H279.469L258.984 997H249.047ZM350.438 997L343.734 977.969H317.531L310.828 997H298.969L324.469 928.188H336.938L362.391 997H350.438ZM340.828 968.312L334.312 949.562C334.062 948.75 333.703 947.609 333.234 946.141C332.766 944.641 332.297 943.125 331.828 941.594C331.359 940.031 330.969 938.719 330.656 937.656C330.344 938.938 329.953 940.375 329.484 941.969C329.047 943.531 328.609 945 328.172 946.375C327.766 947.75 327.453 948.812 327.234 949.562L320.672 968.312H340.828ZM399.094 959.781H424.688V994.188C421.094 995.375 417.375 996.297 413.531 996.953C409.688 997.609 405.375 997.938 400.594 997.938C393.625 997.938 387.719 996.562 382.875 993.812C378.062 991.031 374.406 987.016 371.906 981.766C369.406 976.484 368.156 970.125 368.156 962.688C368.156 955.531 369.547 949.328 372.328 944.078C375.109 938.797 379.156 934.719 384.469 931.844C389.781 928.938 396.219 927.484 403.781 927.484C407.5 927.484 411.094 927.859 414.562 928.609C418.062 929.328 421.266 930.328 424.172 931.609L420.234 940.891C417.922 939.797 415.328 938.875 412.453 938.125C409.578 937.375 406.594 937 403.5 937C398.594 937 394.359 938.062 390.797 940.188C387.266 942.312 384.547 945.312 382.641 949.188C380.734 953.031 379.781 957.578 379.781 962.828C379.781 967.922 380.547 972.391 382.078 976.234C383.609 980.078 386 983.078 389.25 985.234C392.531 987.359 396.766 988.422 401.953 988.422C404.547 988.422 406.75 988.281 408.562 988C410.375 987.719 412.047 987.406 413.578 987.062V969.391H399.094V959.781ZM479.906 997H441.094V928.469H479.906V937.938H452.344V956.547H478.172V965.969H452.344V987.484H479.906V997ZM534.281 978.344C534.281 982.406 533.281 985.906 531.281 988.844C529.312 991.781 526.469 994.031 522.75 995.594C519.062 997.156 514.656 997.938 509.531 997.938C507.031 997.938 504.641 997.797 502.359 997.516C500.078 997.234 497.922 996.828 495.891 996.297C493.891 995.734 492.062 995.062 490.406 994.281V983.688C493.188 984.906 496.297 986.016 499.734 987.016C503.172 987.984 506.672 988.469 510.234 988.469C513.141 988.469 515.547 988.094 517.453 987.344C519.391 986.562 520.828 985.469 521.766 984.062C522.703 982.625 523.172 980.953 523.172 979.047C523.172 977.016 522.625 975.297 521.531 973.891C520.438 972.484 518.781 971.203 516.562 970.047C514.375 968.859 511.625 967.594 508.312 966.25C506.062 965.344 503.906 964.312 501.844 963.156C499.812 962 498 960.641 496.406 959.078C494.812 957.516 493.547 955.672 492.609 953.547C491.703 951.391 491.25 948.859 491.25 945.953C491.25 942.078 492.172 938.766 494.016 936.016C495.891 933.266 498.516 931.156 501.891 929.688C505.297 928.219 509.266 927.484 513.797 927.484C517.391 927.484 520.766 927.859 523.922 928.609C527.109 929.359 530.234 930.422 533.297 931.797L529.734 940.844C526.922 939.688 524.188 938.766 521.531 938.078C518.906 937.391 516.219 937.047 513.469 937.047C511.094 937.047 509.078 937.406 507.422 938.125C505.766 938.844 504.5 939.859 503.625 941.172C502.781 942.453 502.359 943.984 502.359 945.766C502.359 947.766 502.844 949.453 503.812 950.828C504.812 952.172 506.344 953.406 508.406 954.531C510.5 955.656 513.188 956.906 516.469 958.281C520.25 959.844 523.453 961.484 526.078 963.203C528.734 964.922 530.766 966.984 532.172 969.391C533.578 971.766 534.281 974.75 534.281 978.344ZM596.203 997H584.906V938.031H564.844V928.469H616.219V938.031H596.203V997ZM687.562 962.641C687.562 967.922 686.891 972.734 685.547 977.078C684.234 981.391 682.25 985.109 679.594 988.234C676.938 991.328 673.609 993.719 669.609 995.406C665.609 997.094 660.922 997.938 655.547 997.938C650.078 997.938 645.328 997.094 641.297 995.406C637.297 993.719 633.969 991.312 631.312 988.188C628.688 985.062 626.719 981.328 625.406 976.984C624.094 972.641 623.438 967.828 623.438 962.547C623.438 955.484 624.594 949.328 626.906 944.078C629.25 938.797 632.797 934.703 637.547 931.797C642.328 928.859 648.359 927.391 655.641 927.391C662.766 927.391 668.688 928.844 673.406 931.75C678.125 934.656 681.656 938.75 684 944.031C686.375 949.281 687.562 955.484 687.562 962.641ZM635.25 962.641C635.25 967.922 635.969 972.5 637.406 976.375C638.844 980.219 641.047 983.188 644.016 985.281C647.016 987.344 650.859 988.375 655.547 988.375C660.266 988.375 664.109 987.344 667.078 985.281C670.047 983.188 672.234 980.219 673.641 976.375C675.047 972.5 675.75 967.922 675.75 962.641C675.75 954.609 674.141 948.328 670.922 943.797C667.734 939.234 662.641 936.953 655.641 936.953C650.953 936.953 647.094 937.984 644.062 940.047C641.062 942.109 638.844 945.062 637.406 948.906C635.969 952.719 635.25 957.297 635.25 962.641ZM747.141 928.469C755.984 928.469 762.438 930.281 766.5 933.906C770.562 937.531 772.594 942.609 772.594 949.141C772.594 952.109 772.125 954.938 771.188 957.625C770.281 960.281 768.781 962.641 766.688 964.703C764.594 966.734 761.828 968.344 758.391 969.531C754.984 970.719 750.781 971.312 745.781 971.312H738.469V997H727.219V928.469H747.141ZM746.391 937.797H738.469V961.938H744.609C748.141 961.938 751.141 961.531 753.609 960.719C756.078 959.875 757.953 958.547 759.234 956.734C760.516 954.922 761.156 952.531 761.156 949.562C761.156 945.594 759.953 942.641 757.547 940.703C755.172 938.766 751.453 937.797 746.391 937.797ZM841.922 962.078C841.922 969.797 840.484 976.25 837.609 981.438C834.734 986.594 830.562 990.484 825.094 993.109C819.625 995.703 813.031 997 805.312 997H786.281V928.469H807.375C814.469 928.469 820.594 929.75 825.75 932.312C830.906 934.844 834.891 938.609 837.703 943.609C840.516 948.578 841.922 954.734 841.922 962.078ZM830.203 962.406C830.203 956.781 829.312 952.156 827.531 948.531C825.781 944.906 823.188 942.219 819.75 940.469C816.344 938.688 812.141 937.797 807.141 937.797H797.531V987.578H805.5C813.781 987.578 819.969 985.469 824.062 981.25C828.156 977.031 830.203 970.75 830.203 962.406ZM867.844 997H856.688V928.469H895.406V937.938H867.844V959.312H893.625V968.734H867.844V997Z"/><path fill="#61B379" d="M18.2109 1713.85C-1.2836 1714.27 -28.107 1740.35 -38.8009 1751.95C-39.4341 1755.4 -48.9308 1764.37 -48.7941 1798.66C-48.6848 1826.09 -15.5689 1852.34 0.975417 1862.04C1.81637 1845.78 21.6507 1811.58 22.3413 1811.71C22.8938 1811.81 21.2589 1821.5 20.3724 1826.34C18.3271 1849.95 29.3872 1873.2 35.1728 1881.88C44.9977 1896.81 65.3182 1909.53 74.2503 1914.03C78.8649 1885.75 91.4605 1870.78 97.1815 1866.83C97.9295 1870.54 94.5557 1900.62 93.0933 1912.48C91.9234 1921.98 96.3579 1927.12 98.7214 1928.51C125.775 1946.03 175.627 1946.42 197.172 1944.42C216.012 1944.45 247.282 1934.57 260.561 1929.63C258.306 1926.36 253.292 1905.69 251.067 1895.77C238.924 1868.55 230.145 1870.47 224.605 1868.78C218.571 1866.95 215.941 1866.72 214.498 1865.5C216.766 1860.92 222.545 1860.55 220.75 1843.09C218.955 1825.63 205.775 1819.64 196.118 1810.02C188.392 1802.32 176.163 1799.46 171.014 1798.99C162.346 1799.54 150.271 1810.89 148.637 1812.02C147.002 1813.15 143.606 1816.1 144.803 1813.46C146.001 1810.82 151.987 1797.65 151.63 1784.02C151.274 1770.39 122.786 1754.46 104.265 1750.35C85.7449 1746.24 63.9316 1760.08 60.6624 1762.34C58.0471 1764.14 56.7258 1763.04 56.392 1762.27C59.1011 1756.58 65.2629 1743.48 68.2375 1736.6C71.9558 1728 69.3892 1722.53 64.244 1719.45C55.9327 1714.47 33.7806 1711 18.2109 1713.85Z"/><path fill="#F3DEE5" d="M211.758 1892.13C212.955 1889.49 216.579 1885.3 221.496 1889.63C227.643 1895.04 213.127 1900.23 211.758 1892.13Z"/><path fill="#F3DEE5" d="M-50.4604 1737.68C-48.2504 1738.08 119.394 1852.11 202.94 1909.07C206.651 1913.75 199.084 1911.93 194.837 1910.44C185.985 1908.1 -42.1965 1754.9 -50.1616 1747.73C-58.1267 1740.56 -53.223 1737.17 -50.4604 1737.68Z"/><path fill="#F3DEE5" d="M33.8208 1737.43C20.054 1737.76 16.0438 1753.92 15.7595 1761.96C19.5234 1764.79 22.2978 1757.44 28.7786 1749.35C33.9633 1742.88 34.3003 1738.71 33.8208 1737.43Z"/><path fill="#F3DEE5" d="M-16.3003 1823.89C-16.2084 1829.62 -13.2923 1828.25 -11.8458 1826.85C-7.50608 1822.65 -5.15721 1805.95 -5.21462 1802.37C-5.27202 1798.79 -6.52664 1797.85 -10.1065 1797.9C-13.6863 1797.96 -16.4151 1816.73 -16.3003 1823.89Z"/><path fill="#F3DEE5" d="M89.3113 1796.86C83.6201 1806.1 91.2065 1803.39 95.7111 1800.89C99.2949 1798.21 107.646 1791.08 112.379 1783.96C117.113 1776.83 112.18 1777.26 109.122 1778.36C104.89 1780.68 95.0026 1787.62 89.3113 1796.86Z"/><path fill="#F3DEE5" d="M169.435 1846.53C162.492 1853.25 168.545 1853.98 172.439 1853.51C173.13 1853.63 177.566 1852.02 189.786 1844.55C202.006 1837.09 193.336 1836.88 187.473 1837.7C184.353 1837.85 176.379 1839.81 169.435 1846.53Z"/><path fill="#F3DEE5" d="M139.586 1900.31C139.549 1891.16 134.966 1895.65 132.679 1899.04C127.131 1913.73 132.46 1919.7 134.094 1918.58C135.729 1917.45 139.631 1911.74 139.586 1900.31Z"/><path fill="#F3DEE5" d="M52.9 1870.85C53.139 1878.89 56.683 1874.87 58.425 1871.86C63.7779 1862.14 62.8577 1847.69 59.1512 1848.44C55.4447 1849.19 52.6011 1860.8 52.9 1870.85Z"/><path fill="#0A2A5C" d="M44.5322 132.024C43.8079 118.881 17.4482 97.883 18.0112 91.1946C17.1537 87.4064 27.0161 77.3606 31.7372 71.2755C41.0787 59.2347 54.8319 49.2948 62.4189 45.9372C72.4834 43.342 85.1828 31.0451 90.2745 25.2211C97.3993 12.6439 103.798 9.26541 106.107 9.14833C121.552 5.60964 122.154 20.8412 120.524 28.8993C117.06 49.007 89.1728 60.5313 80.433 61.5377C73.4411 62.3428 58.9766 72.1728 52.6184 76.9871C49.2144 78.857 41.6251 86.4935 38.2559 90.0781L59.3193 85.6704C66.3162 82.8928 104.32 86.0206 124.518 99.7816C140.677 110.79 135.77 121.243 131.296 125.093C118.761 135.773 93.9503 123.778 85.1651 117.348C78.1369 112.205 60.0214 106.091 51.8421 103.677C47.3619 101.761 37.9334 98.116 37.0453 99.5686C36.5317 100.409 37.8444 100.86 39.3593 100.983C58.2635 108.773 66.3408 132.73 70.1619 141.887C72.2977 150.056 73.9477 165.721 74.875 178.086C78.5938 200.312 79.629 199.181 74.7564 206.588C65.8822 215.556 56.8503 210.331 51.0491 205.499C42.3831 198.281 41.1301 183.206 42.2846 176.504C46.9126 159.852 45.7096 140.48 44.5322 132.024Z"/><path fill="#4F7EDD" d="M55.6324 144.438C54.6547 125.274 43.9592 111.045 38.7337 106.326C37.6268 105.368 38.31 105.481 38.79 105.657C48.0868 110.638 51.5868 118.756 55.1555 124.455C58.7242 130.153 61.1668 149.228 61.0542 150.566C60.9416 151.903 61.8126 167.204 61.1742 169.979C60.5358 172.753 62.7904 189.252 63.2475 190.235C63.7045 191.217 65.339 200.656 62.152 192.026C61.8228 191.135 59.2342 181.803 58.7771 180.82C58.32 179.838 56.8545 168.393 55.6324 144.438Z"/><path fill="#4F7EDD" d="M101.5 110.946C103.268 111.746 109.198 113.543 110.966 113.921C91.2698 99.417 77.616 98.1013 73.553 96.672C69.49 95.2427 55.8925 93.2582 48.3551 94.6274C40.8178 95.9966 42.4142 96.2695 44.2673 96.6992C45.7497 97.043 48.4429 96.7909 54.0021 98.0801C62.8229 97.4956 77.0957 101.693 80.8279 103.23C87.8709 106.13 99.2899 109.947 101.5 110.946Z"/><path fill="#4F7EDD" d="M80.587 49.986C82.8657 48.5662 95.1124 39.879 100.337 34.9862C98.929 37.2897 98.8603 39.7091 94.3907 44.7122C89.9211 49.7153 80.0183 55.6909 74.396 57.8045C67.9855 60.2144 67.5848 58.5629 46.3945 73.0339C44.6887 74.1988 34.7758 82.8084 30.9885 86.1189C30.4175 85.2071 32.6285 82.6676 33.8054 81.5118C47.5835 65.3217 72.6116 54.9554 80.587 49.986Z"/></g><defs><clipPath id="clip0_4_103"><rect width="1080" height="1920" fill="#fff"/></clipPath></defs></svg>